# xmcd
#
# Track frame offsets:
#	182
#	12047
#	22732
#	34192
#	44160
#	56320
#	66115
#	77835
#	91230
#	100512
#	112925
#	124020
#	135140
#	145880
#	158470
#	172307
#	181440
#	191112
#	205177
#	218420
#	228480
#	239747
#	249052
#	261745
#	272210
#	284802
#	296455
#	309862
#	319877
#	330975
#
# Disc length: 4548 seconds
#
# Revision: 0
# Processed by: cddbd v1.5.1PL2 Copyright (c) Steve Scherf et al.
# Submitted via: EasyCDDAExtractor 8.0.1.1
#
DISCID=a711c21e
DTITLE=Richard Anthony - Ce Monde
DYEAR=1993
DGENRE=Chanson
TTITLE0=Ce monde
TTITLE1=Les garçons pleurent
TTITLE2=Oui, va plus loin
TTITLE3=Pas comme les autres
TTITLE4=La corde au cou
TTITLE5=Souviens-toi (de l'été dernier)
TTITLE6=Si tu as besoin d'un ami
TTITLE7=Ne t'en fais pas pour moi
TTITLE8=Bien qu'on s'aime
TTITLE9=Puisque je pense encore à toi
TTITLE10=Les filles d'aujourd'hui
TTITLE11=Chante Heigh-Ho
TTITLE12=Et quelque chose me dit
TTITLE13=Ne me dis pas
TTITLE14=Je me suis souvent demandé
TTITLE15=Il te faudra chercher
TTITLE16=Je ne dirai rien
TTITLE17=Il est temps de comprendre
TTITLE18=Au revoir, mon amour
TTITLE19=Comment fait-elle ?
TTITLE20=En attendant
TTITLE21=S'en vient le temps
TTITLE22=Ca serait beau
TTITLE23=Autant chercher à retenir le vent
TTITLE24=Jamais je vivrai sans toi
TTITLE25=Dans tous les pays
TTITLE26=Quand on choisit la liberté
TTITLE27=Tout peut s'arranger
TTITLE28=Hello Pussycat
TTITLE29=Rien ni personne
EXTD=
EXTT0=
EXTT1=
EXTT2=
EXTT3=
EXTT4=
EXTT5=
EXTT6=
EXTT7=
EXTT8=
EXTT9=
EXTT10=
EXTT11=
EXTT12=
EXTT13=
EXTT14=
EXTT15=
EXTT16=
EXTT17=
EXTT18=
EXTT19=
EXTT20=
EXTT21=
EXTT22=
EXTT23=
EXTT24=
EXTT25=
EXTT26=
EXTT27=
EXTT28=
EXTT29=
PLAYORDER=
